# xmcd
#
# Track frame offsets:
#	150
#	12927
#	23918
#	36649
#	49649
#	63300
#	83801
#	98951
#	116410
#	131257
#	149810
#	159812
#	174580
#	187076
#
# Disc length: 2664 seconds
#
# Revision: 0
# Processed by: cddbd v1.5.2PL0 Copyright (c) Steve Scherf et al.
# Submitted via: EZCDAudioConverter 2.1.7.1
#
DISCID=bc0a660e
DTITLE=V/A - DJ Format's Psych Out
DYEAR=1900
DGENRE=
TTITLE0=The Quests - Hava Nagila
TTITLE1=Tijuana Brats - Karate Chop
TTITLE2=Rainbow Family - Travellin' Lady
TTITLE3=The CT Four Plus - Exodus II
TTITLE4=49th Blue Streak - Foxy Lady
TTITLE5=Bana Pop Band - Jet Pop
TTITLE6=Koncz Zsuzsa - Visz A Vonat
TTITLE7=La Logia Sarabanda - Todos O Ninguno
TTITLE8=Friar Tuck and His Psychedelic Guitar - Louis, Louis
TTITLE9=Flamengo - Tyden V Elektrickem Meste
TTITLE10=Sergio Ferraresi - Time Of Machines
TTITLE11=Krzysztof Klenczon - Nie Przejdziemy Do Historii
TTITLE12=Aleksandr Sergeyevich Zatsepin - The Shaman's Dance
TTITLE13=Pro Arte - Stari Dvorac
EXTD=
EXTT0=
EXTT1=
EXTT2=
EXTT3=
EXTT4=
EXTT5=
EXTT6=
EXTT7=
EXTT8=
EXTT9=
EXTT10=
EXTT11=
EXTT12=
EXTT13=
PLAYORDER=
